<svg width="140" height="140" viewBox="0 0 140 140" fill="none" xmlns="http://www.w3.org/2000/svg">
<g id="Frame" clip-path="url(#clip0_180920_45489)">
<path id="Vector" d="M66.0625 66.0625H33.25C14.875 66.0625 0.4375 51.1875 0.4375 33.25C0.4375 15.3125 15.3125 0.4375 33.25 0.4375C51.1875 0.4375 66.0625 15.3125 66.0625 33.25V66.0625ZM32.8125 8.75C19.6875 8.75 8.75 19.6875 8.75 32.8125C8.75 45.9375 19.6875 56.875 32.8125 56.875H56.875V32.8125C57.3125 19.6875 46.375 8.75 32.8125 8.75ZM107.188 66.0625H74.375V33.25C74.375 14.875 89.25 0.4375 107.188 0.4375C125.125 0.4375 140 15.3125 140 33.25C140 51.1875 125.125 66.0625 107.188 66.0625ZM82.6875 57.3125H106.75C119.875 57.3125 130.812 46.375 130.812 33.25C130.812 20.125 120.312 8.75 107.188 8.75C94.0625 8.75 83.125 19.6875 83.125 32.8125V57.3125H82.6875ZM32.8125 140C14.4375 140 0 125.125 0 107.188C0 89.25 14.875 74.375 32.8125 74.375H65.625V107.188C66.0625 125.125 51.1875 140 32.8125 140ZM32.8125 82.6875C19.6875 82.6875 8.75 93.625 8.75 106.75C8.75 119.875 19.6875 130.812 32.8125 130.812C45.9375 130.812 56.875 119.875 56.875 106.75V82.6875H32.8125ZM107.188 140C88.8125 140 74.375 125.125 74.375 107.188V74.375H107.188C125.562 74.375 140 89.25 140 107.188C140 125.125 125.125 140 107.188 140ZM82.6875 82.6875V106.75C82.6875 119.875 93.625 130.812 106.75 130.812C119.875 130.812 130.812 119.875 130.812 106.75C130.812 93.625 119.875 82.6875 106.75 82.6875H82.6875Z" fill="#77869E"/>
</g>
<defs>
<clipPath id="clip0_180920_45489">
<rect width="140" height="140" fill="white"/>
</clipPath>
</defs>
</svg>
