<?xml version="1.0" standalone="no"?><!DOCTYPE svg PUBLIC "-//W3C//DTD SVG 1.1//EN" "http://www.w3.org/Graphics/SVG/1.1/DTD/svg11.dtd"><svg t="1765421984804" class="icon" viewBox="0 0 1024 1024" version="1.1" xmlns="http://www.w3.org/2000/svg" p-id="19056" xmlns:xlink="http://www.w3.org/1999/xlink" width="48" height="48"><path d="M847.872 592H152a8 8 0 0 0-8 8v60.032c0 4.352 3.584 7.936 8 7.936h605.184l-144.256 183.04a8.064 8.064 0 0 0 6.272 12.992h72.512a16 16 0 0 0 12.608-6.08l168.768-214.144a32 32 0 0 0-25.216-51.776z m24.128-236.032H266.816l144.256-182.976a8.064 8.064 0 0 0-6.272-12.992H332.288a16 16 0 0 0-12.608 6.08L150.912 380.224a32 32 0 0 0 25.088 51.776h696a8 8 0 0 0 8-8v-60.032a8 8 0 0 0-8-8z" p-id="19057" fill="#3A3A3D"></path></svg>