<svg width="240" height="240" viewBox="0 0 240 240" fill="none" xmlns="http://www.w3.org/2000/svg">
<g id="Frame">
<path id="Vector" d="M122 2.82715C132.877 2.8645 143.379 6.80818 151.592 13.9397C159.806 21.0713 165.184 30.916 166.747 41.6805H190.56C202.893 41.6805 213.693 51.7205 214.907 64.5071L221.387 199.334C222 205.867 220.187 211.96 216.053 216.68C214.094 218.949 211.665 220.765 208.935 222.001C206.204 223.238 203.237 223.865 200.24 223.84H43.92C37.68 223.84 31.8933 221.24 27.9467 216.68C25.9127 214.311 24.3893 211.548 23.4716 208.563C22.554 205.578 22.2618 202.437 22.6133 199.334L29.0933 64.5071C30.3067 51.7205 41.12 41.6805 53.4533 41.6805H77.3733C78.8968 30.9216 84.2473 21.0723 92.4439 13.9386C100.64 6.80484 111.134 2.86466 122 2.84048V2.82715ZM190.56 57.3605H167.2V69.0138C167.193 70.1785 166.924 71.3266 166.411 72.3725C165.899 73.4183 165.156 74.3349 164.24 75.0538L163.253 75.7205C162.068 76.3986 160.727 76.7555 159.361 76.7559C157.996 76.7562 156.654 76.4 155.469 75.7224C154.283 75.0449 153.296 74.0695 152.603 72.8928C151.91 71.7162 151.537 70.3791 151.52 69.0138V57.3605H92.6133L92.6267 68.8671C92.6184 70.0329 92.3466 71.1817 91.8317 72.2277C91.3169 73.2736 90.5722 74.1896 89.6533 74.9071L88.6667 75.5738C87.482 76.2487 86.1418 76.603 84.7784 76.6016C83.4149 76.6003 82.0754 76.2435 80.8921 75.5663C79.7087 74.8891 78.7224 73.915 78.0305 72.7402C77.3386 71.5654 76.965 70.2304 76.9467 68.8671V57.3605H53.2933C49.1467 57.3605 45.12 60.6271 44.08 64.8805L43.8533 66.1871L37.3733 201C37.2624 201.922 37.3412 202.856 37.6049 203.746C37.8686 204.635 38.3116 205.462 38.9067 206.174C40.1067 207.547 41.7867 208.307 43.7733 208.307H200.24C201.134 208.31 202.017 208.121 202.832 207.753C203.646 207.385 204.372 206.847 204.96 206.174C205.553 205.461 205.993 204.634 206.255 203.744C206.516 202.855 206.593 201.921 206.48 201L200 66.1871C199.533 61.4671 195.28 57.3605 190.56 57.3605ZM122.16 18.3605C105.867 18.3605 92.6267 29.6271 92.6267 43.3205L92.68 41.6805H151.48C150.52 29.3472 138.96 19.3471 124.36 18.4271L122.16 18.3605Z" fill="#77869E"/>
<path id="Vector_2" d="M120 89.333C123.533 89.333 126.6 91.733 127.467 95.1463L134.467 122.84L162.187 129.866C163.845 130.29 165.315 131.254 166.365 132.606C167.415 133.958 167.985 135.621 167.985 137.333C167.985 139.045 167.415 140.708 166.365 142.06C165.315 143.412 163.845 144.376 162.187 144.8L134.28 151.84L127.44 179.506C127.027 181.167 126.07 182.642 124.722 183.696C123.374 184.75 121.711 185.323 120 185.323C118.289 185.323 116.626 184.75 115.278 183.696C113.93 182.642 112.973 181.167 112.56 179.506L105.68 151.666L77.8133 144.773C76.1526 144.36 74.6777 143.403 73.6237 142.055C72.5697 140.707 71.9971 139.044 71.9971 137.333C71.9971 135.622 72.5697 133.959 73.6237 132.611C74.6777 131.263 76.1526 130.306 77.8133 129.893L105.467 123.066L112.533 95.1463C112.954 93.4851 113.917 92.0116 115.269 90.9587C116.622 89.9059 118.286 89.3339 120 89.333Z" fill="#77869E"/>
</g>
</svg>
