<svg width="240" height="240" viewBox="0 0 240 240" fill="none" xmlns="http://www.w3.org/2000/svg">
<g id="Frame">
<path id="Vector" d="M185.738 79.6078L179.006 75.7781C178.043 75.2298 176.954 74.9414 175.846 74.9414C174.737 74.9414 173.648 75.2298 172.685 75.7781L165.954 79.6078C164.695 80.325 163.132 79.4156 163.132 77.9672V35.3672C163.132 34.3242 163.978 33.4805 165.019 33.4805H186.67C187.713 33.4805 188.557 34.3266 188.557 35.3672V77.9672C188.559 79.4156 186.996 80.325 185.738 79.6078ZM140.805 107.297H118.477C114.954 107.297 112.099 104.44 112.099 100.92C112.099 97.3992 114.954 94.5422 118.477 94.5422H140.803C144.326 94.5422 147.18 97.3992 147.18 100.92C147.183 104.44 144.328 107.297 140.805 107.297ZM179.862 166.927H118.477C114.954 166.927 112.099 164.07 112.099 160.549C112.099 157.029 114.954 154.172 118.477 154.172H179.862C183.384 154.172 186.239 157.029 186.239 160.549C186.241 164.07 183.384 166.927 179.862 166.927ZM179.862 137.112H118.477C114.954 137.112 112.099 134.255 112.099 130.734C112.099 127.214 114.954 124.357 118.477 124.357H179.862C183.384 124.357 186.239 127.214 186.239 130.734C186.239 134.255 183.384 137.112 179.862 137.112ZM62.6719 213.225H38.0437C29.8383 213.225 23.1609 206.548 23.1609 198.342V41.7305C23.1609 33.525 29.8383 26.8477 38.0437 26.8477H62.6719C70.8773 26.8477 77.5547 33.525 77.5547 41.7305V198.342C77.5547 206.55 70.8773 213.225 62.6719 213.225ZM38.0437 39.6047C36.8695 39.6047 35.918 40.5586 35.918 41.7305V198.342C35.918 199.514 36.8719 200.468 38.0437 200.468H62.6719C63.8461 200.468 64.7977 199.514 64.7977 198.342V41.7305C64.7977 40.5586 63.8437 39.6047 62.6719 39.6047H38.0437Z" fill="#77869E"/>
<path id="Vector_2" d="M203.794 213.225H101.302C93.4898 213.225 87.1359 206.868 87.1359 199.057V41.0176C87.1359 33.2059 93.4922 26.8496 101.302 26.8496H203.794C211.298 26.8496 217.406 32.9574 217.406 40.4621V199.617C217.406 207.117 211.301 213.225 203.794 213.225ZM101.302 39.6043C100.526 39.6043 99.893 40.2395 99.893 41.0152V199.057C99.893 199.832 100.526 200.468 101.302 200.468H203.794C204.265 200.468 204.649 200.086 204.649 199.612V40.4598C204.649 39.9863 204.265 39.6043 203.794 39.6043H101.302Z" fill="#77869E"/>
<path id="Vector_3" d="M44.393 68.7939C44.393 70.3759 45.0214 71.8931 46.14 73.0117C47.2587 74.1303 48.7758 74.7588 50.3578 74.7588C51.9398 74.7588 53.457 74.1303 54.5756 73.0117C55.6942 71.8931 56.3227 70.3759 56.3227 68.7939C56.3227 67.212 55.6942 65.6948 54.5756 64.5762C53.457 63.4575 51.9398 62.8291 50.3578 62.8291C48.7758 62.8291 47.2587 63.4575 46.14 64.5762C45.0214 65.6948 44.393 67.212 44.393 68.7939Z" fill="#77869E"/>
<path id="Vector_4" d="M44.393 85.8232C44.393 87.4052 45.0214 88.9224 46.14 90.041C47.2587 91.1596 48.7758 91.7881 50.3578 91.7881C51.9398 91.7881 53.457 91.1596 54.5756 90.041C55.6942 88.9224 56.3227 87.4052 56.3227 85.8232C56.3227 84.2413 55.6942 82.7241 54.5756 81.6055C53.457 80.4868 51.9398 79.8584 50.3578 79.8584C48.7758 79.8584 47.2587 80.4868 46.14 81.6055C45.0214 82.7241 44.393 84.2413 44.393 85.8232Z" fill="#77869E"/>
</g>
</svg>
