<svg width="240" height="240" viewBox="0 0 240 240" fill="none" xmlns="http://www.w3.org/2000/svg">
<g id="Frame">
<path id="Vector" d="M218.76 171.133C210.938 184.503 200.455 196.125 187.96 205.28C175.419 214.477 161.139 221.028 145.987 224.533C130.815 228.04 115.091 228.439 99.7614 225.708C84.4316 222.976 69.8132 217.17 56.7867 208.64L55.5067 207.8L56.48 206.6L66.6533 194.16L67.44 193.2L68.48 193.866C89.0616 206.923 113.835 211.675 137.787 207.16C161.687 202.696 182.979 189.27 197.307 169.626L197.72 169.053H219.987L218.76 171.133ZM45.0267 169.106C48.5867 169.453 51.92 171 54.4667 173.506C56.2689 175.282 57.6004 177.479 58.3413 179.899C59.0821 182.318 59.2088 184.884 58.71 187.365C58.2112 189.846 57.1026 192.163 55.4842 194.108C53.8659 196.053 51.7886 197.565 49.44 198.506C48.0341 199.082 46.5519 199.45 45.04 199.6L43.52 199.666C39.4297 199.661 35.5043 198.053 32.5867 195.186C31.1495 193.772 30.0081 192.086 29.229 190.226C28.4499 188.366 28.0487 186.369 28.0487 184.353C28.0487 182.337 28.4499 180.34 29.229 178.48C30.0081 176.62 31.1495 174.934 32.5867 173.52C35.48 170.64 39.4133 169.026 43.52 169.026L45.04 169.106H45.0267ZM75.3867 92.2263C79.8267 84.933 91.1467 88.0397 91.1467 96.533V155.226H74.1733V126.8L64.4933 142.773C63.8065 143.915 62.8587 144.878 61.7276 145.582C60.5965 146.287 59.3145 146.713 57.9867 146.826C56.6589 146.943 55.3221 146.75 54.0818 146.262C52.8415 145.774 51.7317 145.004 50.84 144.013L49.92 142.773L40.24 126.813V155.24H23.2667V96.533C23.2667 88.0263 34.6 84.933 39.04 92.2263L57.2 122.16L75.3733 92.2263H75.3867ZM142.067 104.92H133.587C129.08 104.92 124.76 106.68 121.587 109.826C120.014 111.377 118.766 113.224 117.914 115.262C117.062 117.299 116.623 119.485 116.623 121.693C116.623 123.901 117.062 126.087 117.914 128.124C118.766 130.162 120.014 132.009 121.587 133.56C124.76 136.693 129.08 138.466 133.587 138.466H142.067V155.24H133.587C124.606 155.248 115.983 151.717 109.587 145.413C106.44 142.313 103.94 138.618 102.233 134.544C100.525 130.47 99.644 126.097 99.64 121.68C99.6478 117.269 100.531 112.903 102.238 108.836C103.946 104.769 106.444 101.081 109.587 97.9863C115.981 91.6772 124.604 88.1419 133.587 88.1463H142.067V104.933V104.92ZM192.987 88.1463C199.733 88.1463 206.213 90.813 210.987 95.5197C213.341 97.845 215.21 100.615 216.486 103.668C217.762 106.721 218.419 109.997 218.419 113.306C218.419 116.615 217.762 119.892 216.486 122.945C215.21 125.998 213.341 128.768 210.987 131.093C206.189 135.821 199.723 138.47 192.987 138.466H176V155.24H159.027V100.72C159.027 97.3863 160.36 94.1863 162.747 91.8263C165.149 89.4579 168.387 88.131 171.76 88.133H192.96L192.987 88.1463ZM176 121.693H192.973C195.22 121.693 197.376 120.806 198.973 119.226C200.174 118.059 200.995 116.557 201.33 114.916C201.665 113.276 201.497 111.572 200.85 110.028C200.202 108.484 199.104 107.17 197.699 106.259C196.294 105.348 194.647 104.881 192.973 104.92H176V121.693ZM89.48 18.2663C118.283 10.3658 149.028 13.9508 175.24 28.2663L176.613 29.0397L175.68 30.3063L166.213 43.3197L165.507 44.2797L164.44 43.7463C144.067 33.1268 120.566 30.1472 98.1867 35.3463C75.7867 40.5463 58.3733 51.453 44.5867 72.013L44.16 72.6397H43.4L41.5333 72.5863H20L21.2267 70.493C36.2876 44.8361 60.79 26.0909 89.4933 18.2663H89.48ZM190.427 36.0397C194.52 36.0397 198.467 37.653 201.36 40.5197C204.267 43.3863 205.893 47.293 205.893 51.3463L205.827 52.8663C205.467 56.373 203.907 59.6663 201.36 62.173C198.446 65.0457 194.519 66.6562 190.427 66.6562C186.335 66.6562 182.407 65.0457 179.493 62.173C178.06 60.7579 176.922 59.0721 176.145 57.2136C175.368 55.355 174.968 53.3607 174.968 51.3463C174.968 49.332 175.368 47.3377 176.145 45.4791C176.922 43.6206 178.06 41.9348 179.493 40.5197C182.4 37.653 186.333 36.0397 190.427 36.0397Z" fill="#77869E"/>
</g>
</svg>
