<?xml version="1.0" standalone="no"?><!DOCTYPE svg PUBLIC "-//W3C//DTD SVG 1.1//EN" "http://www.w3.org/Graphics/SVG/1.1/DTD/svg11.dtd"><svg t="1763708892088" class="icon" viewBox="0 0 1024 1024" version="1.1" xmlns="http://www.w3.org/2000/svg" p-id="7547" xmlns:xlink="http://www.w3.org/1999/xlink" width="48" height="48"><path d="M672 64a64 64 0 0 1 64 64v96h144a32 32 0 1 1 0 64h-50.816l-26.496 610.752a64 64 0 0 1-64 61.248H285.312a64 64 0 0 1-63.936-61.248L194.752 288H144a32 32 0 0 1 0-64H288V128a64 64 0 0 1 64-64h320z m93.184 224H258.816l25.792 592.64a16 16 0 0 0 16 15.36h422.784a16 16 0 0 0 16-15.36l25.728-592.64zM416 448a32 32 0 0 1 32 32v192a32 32 0 1 1-64 0v-192a32 32 0 0 1 32-32z m192 0a32 32 0 0 1 32 32v192a32 32 0 1 1-64 0v-192a32 32 0 0 1 32-32z m48-320h-288a16 16 0 0 0-16 16V224h320V144a16 16 0 0 0-16-16z" p-id="7548"></path></svg>