<?xml version="1.0" standalone="no"?><!DOCTYPE svg PUBLIC "-//W3C//DTD SVG 1.1//EN" "http://www.w3.org/Graphics/SVG/1.1/DTD/svg11.dtd"><svg t="1763708905533" class="icon" viewBox="0 0 1024 1024" version="1.1" xmlns="http://www.w3.org/2000/svg" p-id="7707" xmlns:xlink="http://www.w3.org/1999/xlink" width="48" height="48"><path d="M960 192a128 128 0 0 1-251.968 32.064L96 224a32 32 0 1 1 0-64h612.032A128 128 0 0 1 960 192z m-64 0a64 64 0 1 0-128 0 64 64 0 0 0 128 0z m64 640a32 32 0 0 1-32 32l-612.032 0.064A128 128 0 0 1 64 832l0.32-9.6a128 128 0 0 1 251.648-22.4H928a32 32 0 0 1 32 32zM256 832a64 64 0 1 0-128 0 64 64 0 0 0 128 0z m704-320a32 32 0 0 1-32 32l-292.032 0.064a128 128 0 0 1-247.936 0L96 544a32 32 0 1 1 0-64h292.032a128 128 0 0 1 247.936 0H928a32 32 0 0 1 32 32zM576 512a64 64 0 1 0-128 0 64 64 0 0 0 128 0z" fill="#3A3A3D" p-id="7708"></path></svg>