<svg width="241" height="241" viewBox="0 0 241 241" fill="none" xmlns="http://www.w3.org/2000/svg">
<g id="Frame">
<path id="Vector" d="M120.757 217.857L117.853 216.699C103.408 210.936 89.9036 203.063 77.7161 193.299C65.6411 183.63 55.0447 172.247 46.263 159.512C28.0216 133.065 18.3794 102.036 18.3794 69.7791C18.3794 61.2807 19.0474 52.8572 20.3622 44.7455L21.5458 37.4518L28.8958 38.2018C33.7286 38.6939 38.6997 38.9447 43.6731 38.9447C68.7958 38.9447 93.438 32.3377 114.935 19.8361L118.875 17.5439L122.815 19.8361C144.311 32.3377 168.935 38.9447 194.022 38.9447C200.318 38.9447 206.456 38.5299 212.268 37.7143L219.843 36.6502L221.093 44.1971C222.48 52.5783 223.183 61.1846 223.183 69.7791C223.183 102.038 213.539 133.067 195.295 159.512C186.51 172.25 175.909 183.634 163.828 193.302C151.631 203.066 138.117 210.938 123.661 216.702L120.757 217.857ZM34.8771 54.39C34.3333 59.4385 34.0567 64.59 34.0567 69.7814C34.0567 127.414 67.9802 178.557 120.757 200.945C173.564 178.564 207.506 127.424 207.506 69.7814C207.506 64.5385 207.215 59.2932 206.641 54.1111C202.521 54.4533 198.3 54.6244 194.025 54.6244C179.894 54.6244 165.893 52.7611 152.409 49.0838C140.749 45.902 129.496 41.3796 118.877 35.6072C108.255 41.3816 96.9997 45.9041 85.3356 49.0838C71.845 52.7611 57.827 54.6244 43.6755 54.6244C40.7364 54.6244 37.7974 54.5471 34.8771 54.39Z" fill="#77869E"/>
<path id="Vector_2" d="M120.977 123.598H99.7754L103.45 75.1201H146.357L120.977 123.598Z" fill="#77869E"/>
<path id="Vector_3" d="M113.325 168.641L121.122 120.16H153.028L113.325 168.641Z" fill="#77869E"/>
</g>
</svg>
