<svg width="240" height="240" viewBox="0 0 240 240" fill="none" xmlns="http://www.w3.org/2000/svg">
<g id="Frame">
<path id="Vector" d="M204.328 77.625H90.0937C82.8047 77.625 76.875 71.6953 76.875 64.4063V28.1016C76.875 20.8125 82.8047 14.8828 90.0937 14.8828H204.328C211.617 14.8828 217.547 20.8125 217.547 28.1016V64.4063C217.523 71.6953 211.617 77.625 204.328 77.625ZM91.8984 62.625H202.547V29.9063H91.8984V62.625ZM150.633 224.625H36.4219C29.1328 224.625 23.2031 218.695 23.2031 211.43V175.125C23.2031 167.836 29.1328 161.906 36.4219 161.906H150.656C157.945 161.906 163.875 167.836 163.875 175.125V211.43C163.852 218.719 157.922 224.625 150.633 224.625ZM38.2031 209.625H148.852V176.906H38.2031V209.625Z" fill="#77869E"/>
<path id="Vector_2" d="M207.188 202.688H162.891V187.688H207.188C208.734 187.688 210 186.422 210 184.875V127.664C210 126.117 208.734 124.852 207.188 124.852H41.0156C31.1953 124.852 23.2031 116.859 23.2031 107.039V55.2656C23.2031 45.4453 31.1953 37.4531 41.0156 37.4531H80.9063V52.4531H41.0156C39.4688 52.4531 38.2031 53.7188 38.2031 55.2656V107.039C38.2031 108.586 39.4688 109.852 41.0156 109.852H207.188C217.008 109.852 225 117.844 225 127.664V184.875C225 194.695 217.008 202.688 207.188 202.688Z" fill="#77869E"/>
<path id="Vector_3" d="M144.211 129.023L143.367 129.867C137.016 136.219 126.75 136.219 120.398 129.867L119.555 129.023C113.203 122.672 113.203 112.406 119.555 106.055L120.398 105.211C126.75 98.8594 137.016 98.8594 143.367 105.211L144.211 106.055C150.539 112.406 150.539 122.695 144.211 129.023Z" fill="#77869E"/>
</g>
</svg>
